<svg xmlns="http://www.w3.org/2000/svg" viewBox="0 0 1296.41 756.21"><defs><style>.a{fill:#58d6e0;}.b{font-size:120px;fill:#fff;font-family:MyriadPro-Regular, Myriad Pro;}.c{letter-spacing:-0.05em;}.d{font-size:40px;}.e{letter-spacing:-0.01em;}.f{letter-spacing:-0.01em;}.g{letter-spacing:0em;}.h{letter-spacing:-0.03em;}.i{letter-spacing:-0.04em;}.j{letter-spacing:0.01em;}.k{letter-spacing:-0.02em;}</style></defs><path class="a" d="M1295.85,277.37l.07-.12a3.84,3.84,0,0,0,.22-.39l0-.08a2.81,2.81,0,0,0,.16-.49.68.68,0,0,0,0-.14,2.51,2.51,0,0,0,0-1.09.59.59,0,0,0,0-.13,2.56,2.56,0,0,0-.16-.49l0-.08a2.46,2.46,0,0,0-.22-.39l-.07-.12a3.09,3.09,0,0,0-.33-.39l0,0a3.37,3.37,0,0,0-.35-.29L1295,273l-.09-.06L842.49,4a.67.67,0,0,1-.12-.06l-.3-.14-.26-.09-.3-.07-.29,0h-.59l-.28,0-.3.07-.26.09a2.2,2.2,0,0,0-.31.15l-.12.05-92.19,54.8L648.2,0l-99,58.83L457.05,4,456.93,4l-.31-.14-.26-.09-.3-.07-.28,0h-.59l-.29,0-.3.07-.25.09A2.3,2.3,0,0,0,454,4l-.11.05L1.5,273l-.09.06-.12.08a3.37,3.37,0,0,0-.35.29l0,0a3.09,3.09,0,0,0-.33.39L.48,274a2.42,2.42,0,0,0-.21.39l0,.08a3.51,3.51,0,0,0-.15.49l0,.13a3,3,0,0,0,0,1.09l0,.14a4,4,0,0,0,.15.49l0,.08a3.72,3.72,0,0,0,.21.39l.08.12a3.09,3.09,0,0,0,.33.39l0,.05a3.37,3.37,0,0,0,.35.29l.12.08.09.06L453.92,547.18l0,0,.23.12a.84.84,0,0,0,.14.06l.19.07a1.52,1.52,0,0,0,.2.06.61.61,0,0,0,.13,0l.25.05h.78l.2,0,.19,0,.16,0,.23-.08.12,0,.25-.13,0,0,92.19-54.8,99,58.83,99-58.83,92.19,54.8,0,0,.24.12a.59.59,0,0,0,.14.06l.19.07.19.06.14,0,.25.05h.78l.2,0,.19,0,.15,0,.23-.08.12,0,.25-.13,0,0,452.42-268.94.09-.06.12-.08a3.37,3.37,0,0,0,.35-.29l0-.05A3.09,3.09,0,0,0,1295.85,277.37ZM840.93,10.22l441.29,262.33H1106.69L753.16,62.39ZM189.72,272.55H14.19L455.48,10.22l87.77,52.17ZM455.48,541,14.19,278.67H189.73L543.25,488.82Zm651.2-262.33h175.54L840.93,541l-87.77-52.18Z"/><text class="b" transform="translate(385.6 675.73)"><tspan class="c">A</tspan><tspan x="67.08" y="0">WESOME</tspan><tspan class="d"><tspan x="116.66" y="48">C</tspan><tspan class="e" x="139.86" y="48">R</tspan><tspan class="f" x="160.94" y="48">Y</tspan><tspan class="g" x="182.3" y="48">P</tspan><tspan class="h" x="203.58" y="48">T</tspan><tspan x="222.38" y="48">O</tspan><tspan class="i" x="249.94" y="48"> </tspan><tspan x="256.78" y="48">T</tspan><tspan class="j" x="276.66" y="48">R</tspan><tspan class="k" x="298.38" y="48">A</tspan><tspan x="322.25" y="48">CKER</tspan></tspan></text></svg>