<svg xmlns="http://www.w3.org/2000/svg" viewBox="0 0 1920.17 816.43"><defs><style>.a{fill:#58d6e0;}</style></defs><path class="a" d="M1919.34,410.82l.11-.17a4.71,4.71,0,0,0,.32-.58s0-.08,0-.12a4.43,4.43,0,0,0,.23-.73c0-.06,0-.13,0-.2a4.09,4.09,0,0,0,0-1.61c0-.07,0-.13,0-.2a4.43,4.43,0,0,0-.23-.73,1.17,1.17,0,0,0,0-.11,3.6,3.6,0,0,0-.32-.58,1.74,1.74,0,0,0-.11-.18,5.27,5.27,0,0,0-.48-.58l-.08-.07a4.4,4.4,0,0,0-.52-.43l-.17-.12-.13-.09L1247.85,6l-.17-.08a3.82,3.82,0,0,0-.46-.21,2.46,2.46,0,0,0-.38-.14,3.54,3.54,0,0,0-.44-.11l-.43-.06a3.1,3.1,0,0,0-.43,0,3.24,3.24,0,0,0-.44,0,3,3,0,0,0-.42.06,3.69,3.69,0,0,0-.45.11l-.37.13-.47.22-.17.08L1106.67,87.14,960.09,0,813.5,87.14,677,6l-.18-.08a3.1,3.1,0,0,0-.45-.21,2.92,2.92,0,0,0-.38-.14,3.69,3.69,0,0,0-.45-.11l-.42-.06a3.24,3.24,0,0,0-.44,0,3.1,3.1,0,0,0-.43,0,3,3,0,0,0-.42.06,3.28,3.28,0,0,0-.45.11l-.38.13-.46.22-.17.08L2.21,404.32l-.13.09-.17.12a4.4,4.4,0,0,0-.52.43l-.08.07a5.27,5.27,0,0,0-.48.58l-.11.18a3.6,3.6,0,0,0-.32.58,1.17,1.17,0,0,0-.05.11,4.43,4.43,0,0,0-.23.73c0,.07,0,.13,0,.2a4.09,4.09,0,0,0,0,1.61c0,.07,0,.14,0,.2a4.43,4.43,0,0,0,.23.73s0,.08.05.12a4.71,4.71,0,0,0,.32.58c0,.05.07.11.11.17a4.48,4.48,0,0,0,.48.58l.08.07a3.6,3.6,0,0,0,.52.43l.17.12.13.09L672.32,810.46l0,0,.35.18.21.1.28.09.29.1.19,0,.38.07h.21l.36,0h0l.27,0,.3,0,.3-.06.28,0,.23-.08c.11,0,.23-.07.34-.12l.18-.08.37-.19,0,0L813.5,729.29l146.59,87.14,146.58-87.14,136.55,81.17,0,0a3.65,3.65,0,0,0,.34.18l.21.1.28.09.29.1.2,0,.37.07h.21l.36,0h0l.27,0,.3,0,.3-.06.28,0,.23-.08a3.4,3.4,0,0,0,.34-.12l.18-.08.37-.19,0,0L1918,412.11l.13-.09.17-.12a3.6,3.6,0,0,0,.52-.43l.08-.07A4.48,4.48,0,0,0,1919.34,410.82ZM1245.54,15.14l653.61,388.55h-260L1115.54,92.41ZM281,403.69H21L674.63,15.14l130,77.27ZM674.63,801.3,21,412.75H281L804.63,724Zm964.53-388.55h260L1245.54,801.3l-130-77.28Z"/></svg>